<?xml version="1.0" standalone="no"?>
<!DOCTYPE svg PUBLIC "-//W3C//DTD SVG 20010904//EN"
 "http://www.w3.org/TR/2001/REC-SVG-20010904/DTD/svg10.dtd">
<svg version="1.0" xmlns="http://www.w3.org/2000/svg"
 width="356.000000pt" height="314.000000pt" viewBox="0 0 356.000000 314.000000"
 preserveAspectRatio="xMidYMid meet">

<g transform="translate(0.000000,314.000000) scale(0.100000,-0.100000)"
fill="#000000" stroke="none">
<path d="M1243 2135 l-311 -225 -131 -161 c-72 -89 -129 -164 -127 -167 3 -2
59 18 125 47 66 28 122 51 125 51 3 0 6 -181 6 -403 l0 -403 323 -68 322 -68
505 46 c278 25 511 46 518 46 9 0 12 97 12 451 0 424 1 450 18 445 40 -12 223
-48 226 -45 2 2 -54 81 -124 174 l-127 170 -515 168 c-283 92 -519 167 -524
167 -5 0 -150 -101 -321 -225z m1443 -270 c57 -76 102 -140 100 -142 -2 -2
-208 38 -458 89 l-454 93 -105 169 c-57 94 -114 186 -126 206 l-22 37 480
-157 481 -156 104 -139z m-1313 195 l-108 -203 -165 -69 c-91 -38 -207 -87
-258 -109 l-93 -39 30 38 c166 207 165 206 436 402 143 103 261 186 263 185 1
-1 -46 -94 -105 -205z m337 -170 c62 -195 116 -358 119 -362 3 -3 159 -27 346
-52 187 -26 355 -49 373 -52 l32 -6 0 -279 0 -279 -22 -4 c-24 -5 -920 -86
-950 -86 -17 0 -18 42 -18 742 0 408 2 739 3 737 2 -2 55 -164 117 -359z"/>
</g>
</svg>
